<?xml version="1.0" encoding="UTF-8" standalone="no"?><svg xmlns="http://www.w3.org/2000/svg" xmlns:xlink="http://www.w3.org/1999/xlink" clip-rule="evenodd" stroke-miterlimit="4.00" viewBox="0 0 1024 768"><desc>SVG generated by Keynote</desc><defs></defs><g transform="matrix(1.00, 0.00, -0.00, -1.00, 0.0, 768.0)"><g><clipPath id="clip-96"><path d="M 0.0 768.0 L 1024.0 768.0 L 1024.0 0.0 L 0.0 0.0 Z M 0.0 768.0 "></path></clipPath><g clip-path="url(#clip-96)"><image xlink:href="../../06DBE9C8-52A0-453A-A7BF-EBF58CF01F35/assets/E7ABA782A15EA3475B4CFCC80A2FEB63.jpeg" width="1024.00" height="768.00" transform="matrix(1.00, 0.00, -0.00, -1.00, 0.0, 768.0)"></image></g></g><g><clipPath id="clip-97"><path d="M 126.0 718.0 L 896.0 718.0 L 896.0 252.0 L 126.0 252.0 Z M 126.0 718.0 "></path></clipPath><g clip-path="url(#clip-97)"><image xlink:href="5729E5598ADD0E25F3E569E8AC869539.png" width="622.00" height="466.00" transform="matrix(1.00, 0.00, -0.00, -1.00, 200.0, 718.0)"></image></g></g><text xml:space="preserve" font-family="Helvetica-Light" font-size="71.2" fill="#FEFFFF" transform="matrix(1.00, 0.00, -0.00, -1.00, 104.0, 147.0)">A</text><text xml:space="preserve" font-family="Helvetica-Light" font-size="71.2" fill="#FEFFFF" transform="matrix(1.00, 0.00, -0.00, -1.00, 151.5, 147.0)">s</text><text xml:space="preserve" font-family="Helvetica-Light" font-size="71.2" fill="#FEFFFF" transform="matrix(1.00, 0.00, -0.00, -1.00, 187.1, 147.0)">s</text><text xml:space="preserve" font-family="Helvetica-Light" font-size="71.2" fill="#FEFFFF" transform="matrix(1.00, 0.00, -0.00, -1.00, 222.7, 147.0)">i</text><text xml:space="preserve" font-family="Helvetica-Light" font-size="71.2" fill="#FEFFFF" transform="matrix(1.00, 0.00, -0.00, -1.00, 238.5, 147.0)">n</text><text xml:space="preserve" font-family="Helvetica-Light" font-size="71.2" fill="#FEFFFF" transform="matrix(1.00, 0.00, -0.00, -1.00, 278.1, 147.0)">a</text><text xml:space="preserve" font-family="Helvetica-Light" font-size="71.2" fill="#FEFFFF" transform="matrix(1.00, 0.00, -0.00, -1.00, 317.7, 147.0)">t</text><text xml:space="preserve" font-family="Helvetica-Light" font-size="71.2" fill="#FEFFFF" transform="matrix(1.00, 0.00, -0.00, -1.00, 337.5, 147.0)">u</text><text xml:space="preserve" font-family="Helvetica-Light" font-size="71.2" fill="#FEFFFF" transform="matrix(1.00, 0.00, -0.00, -1.00, 377.1, 147.0)">r</text><text xml:space="preserve" font-family="Helvetica-Light" font-size="71.2" fill="#FEFFFF" transform="matrix(1.00, 0.00, -0.00, -1.00, 400.8, 147.0)">a</text><text xml:space="preserve" font-family="Helvetica-Light" font-size="71.2" fill="#FEFFFF" transform="matrix(1.00, 0.00, -0.00, -1.00, 440.3, 147.0)"> </text><text xml:space="preserve" font-family="Helvetica-Light" font-size="71.2" fill="#FEFFFF" transform="matrix(1.00, 0.00, -0.00, -1.00, 460.1, 147.0)">n</text><text xml:space="preserve" font-family="Helvetica-Light" font-size="71.2" fill="#FEFFFF" transform="matrix(1.00, 0.00, -0.00, -1.00, 499.7, 147.0)">o</text><text xml:space="preserve" font-family="Helvetica-Light" font-size="71.2" fill="#FEFFFF" transform="matrix(1.00, 0.00, -0.00, -1.00, 539.3, 147.0)"> </text><text xml:space="preserve" font-family="Helvetica-Light" font-size="71.2" fill="#FEFFFF" transform="matrix(1.00, 0.00, -0.00, -1.00, 559.1, 147.0)">d</text><text xml:space="preserve" font-family="Helvetica-Light" font-size="71.2" fill="#FEFFFF" transform="matrix(1.00, 0.00, -0.00, -1.00, 602.6, 147.0)">o</text><text xml:space="preserve" font-family="Helvetica-Light" font-size="71.2" fill="#FEFFFF" transform="matrix(1.00, 0.00, -0.00, -1.00, 642.2, 147.0)">c</text><text xml:space="preserve" font-family="Helvetica-Light" font-size="71.2" fill="#FEFFFF" transform="matrix(1.00, 0.00, -0.00, -1.00, 681.8, 147.0)">u</text><text xml:space="preserve" font-family="Helvetica-Light" font-size="71.2" fill="#FEFFFF" transform="matrix(1.00, 0.00, -0.00, -1.00, 721.4, 147.0)">m</text><text xml:space="preserve" font-family="Helvetica-Light" font-size="71.2" fill="#FEFFFF" transform="matrix(1.00, 0.00, -0.00, -1.00, 780.7, 147.0)">e</text><text xml:space="preserve" font-family="Helvetica-Light" font-size="71.2" fill="#FEFFFF" transform="matrix(1.00, 0.00, -0.00, -1.00, 820.3, 147.0)">n</text><text xml:space="preserve" font-family="Helvetica-Light" font-size="71.2" fill="#FEFFFF" transform="matrix(1.00, 0.00, -0.00, -1.00, 859.9, 147.0)">t</text><text xml:space="preserve" font-family="Helvetica-Light" font-size="71.2" fill="#FEFFFF" transform="matrix(1.00, 0.00, -0.00, -1.00, 879.7, 147.0)">o</text><path d="M 0.0 0.0 L 434.0 0.0 L 434.0 212.2 L 0.0 212.2 Z M 0.0 0.0 " fill="none" stroke="#FF2600" stroke-width="2.00" transform="matrix(1.00, 0.00, 0.00, -1.00, 391.0, 570.3)"></path></g></svg>