<?xml version="1.0" encoding="UTF-8" standalone="no"?><svg xmlns="http://www.w3.org/2000/svg" xmlns:xlink="http://www.w3.org/1999/xlink" clip-rule="evenodd" stroke-miterlimit="4.00" viewBox="0 0 1024 768"><desc>SVG generated by Keynote</desc><defs></defs><g transform="matrix(1.00, 0.00, -0.00, -1.00, 0.0, 768.0)"><g><clipPath id="clip-126"><path d="M 0.0 768.0 L 1024.0 768.0 L 1024.0 0.0 L 0.0 0.0 Z M 0.0 768.0 "></path></clipPath><g clip-path="url(#clip-126)"><image xlink:href="../../06DBE9C8-52A0-453A-A7BF-EBF58CF01F35/assets/E7ABA782A15EA3475B4CFCC80A2FEB63.jpeg" width="1024.00" height="768.00" transform="matrix(1.00, 0.00, -0.00, -1.00, 0.0, 768.0)"></image></g></g><g><clipPath id="clip-127"><path d="M 529.0 564.0 L 949.0 564.0 L 949.0 69.0 L 529.0 69.0 Z M 529.0 564.0 "></path></clipPath><g clip-path="url(#clip-127)"><image xlink:href="../../527E718F-2EE1-4452-B5D3-79A6CB346CE2/assets/A91F2833CD663D2C7844C9C9BDE9BDEC.png" width="580.00" height="350.00" transform="matrix(1.41, 0.00, -0.00, -1.41, 329.0, 564.0)"></image></g></g><path d="M 0.0 0.0 L 0.0 495.0 L 420.0 495.0 L 420.0 0.0 L 0.0 0.0 Z M 0.0 0.0 " fill="none" stroke="#FEFFFE" stroke-width="1.00" transform="matrix(1.00, 0.00, 0.00, -1.00, 529.0, 564.0)"></path><text xml:space="preserve" font-family="Helvetica-Light" font-size="80.0" fill="#FEFFFF" transform="matrix(1.00, 0.00, -0.00, -1.00, 121.0, 622.0)">A</text><text xml:space="preserve" font-family="Helvetica-Light" font-size="80.0" fill="#FEFFFF" transform="matrix(1.00, 0.00, -0.00, -1.00, 174.4, 622.0)">t</text><text xml:space="preserve" font-family="Helvetica-Light" font-size="80.0" fill="#FEFFFF" transform="matrix(1.00, 0.00, -0.00, -1.00, 196.6, 622.0)">u</text><text xml:space="preserve" font-family="Helvetica-Light" font-size="80.0" fill="#FEFFFF" transform="matrix(1.00, 0.00, -0.00, -1.00, 241.1, 622.0)">a</text><text xml:space="preserve" font-family="Helvetica-Light" font-size="80.0" fill="#FEFFFF" transform="matrix(1.00, 0.00, -0.00, -1.00, 285.6, 622.0)">l</text><text xml:space="preserve" font-family="Helvetica-Light" font-size="80.0" fill="#FEFFFF" transform="matrix(1.00, 0.00, -0.00, -1.00, 303.3, 622.0)">i</text><text xml:space="preserve" font-family="Helvetica-Light" font-size="80.0" fill="#FEFFFF" transform="matrix(1.00, 0.00, -0.00, -1.00, 321.1, 622.0)">z</text><text xml:space="preserve" font-family="Helvetica-Light" font-size="80.0" fill="#FEFFFF" transform="matrix(1.00, 0.00, -0.00, -1.00, 361.1, 622.0)">a</text><text xml:space="preserve" font-family="Helvetica-Light" font-size="80.0" fill="#FEFFFF" transform="matrix(1.00, 0.00, -0.00, -1.00, 405.6, 622.0)">ç</text><text xml:space="preserve" font-family="Helvetica-Light" font-size="80.0" fill="#FEFFFF" transform="matrix(1.00, 0.00, -0.00, -1.00, 450.0, 622.0)">ã</text><text xml:space="preserve" font-family="Helvetica-Light" font-size="80.0" fill="#FEFFFF" transform="matrix(1.00, 0.00, -0.00, -1.00, 494.5, 622.0)">o</text><text xml:space="preserve" font-family="Helvetica-Light" font-size="80.0" fill="#FEFFFF" transform="matrix(1.00, 0.00, -0.00, -1.00, 539.0, 622.0)"> </text><text xml:space="preserve" font-family="Helvetica-Light" font-size="80.0" fill="#FEFFFF" transform="matrix(1.00, 0.00, -0.00, -1.00, 561.2, 622.0)">d</text><text xml:space="preserve" font-family="Helvetica-Light" font-size="80.0" fill="#FEFFFF" transform="matrix(1.00, 0.00, -0.00, -1.00, 610.1, 622.0)">e</text><text xml:space="preserve" font-family="Helvetica-Light" font-size="80.0" fill="#FEFFFF" transform="matrix(1.00, 0.00, -0.00, -1.00, 654.6, 622.0)"> </text><text xml:space="preserve" font-family="Helvetica-Light" font-size="80.0" fill="#FEFFFF" transform="matrix(1.00, 0.00, -0.00, -1.00, 676.8, 622.0)">d</text><text xml:space="preserve" font-family="Helvetica-Light" font-size="80.0" fill="#FEFFFF" transform="matrix(1.00, 0.00, -0.00, -1.00, 725.7, 622.0)">a</text><text xml:space="preserve" font-family="Helvetica-Light" font-size="80.0" fill="#FEFFFF" transform="matrix(1.00, 0.00, -0.00, -1.00, 770.2, 622.0)">d</text><text xml:space="preserve" font-family="Helvetica-Light" font-size="80.0" fill="#FEFFFF" transform="matrix(1.00, 0.00, -0.00, -1.00, 819.1, 622.0)">o</text><text xml:space="preserve" font-family="Helvetica-Light" font-size="80.0" fill="#FEFFFF" transform="matrix(1.00, 0.00, -0.00, -1.00, 863.6, 622.0)">s</text><text xml:space="preserve" font-family="Helvetica-Light" font-size="21.0" fill="#FEFFFF" transform="matrix(1.00, 0.00, -0.00, -1.00, 79.0, 397.3)">•</text><text xml:space="preserve" font-family="Helvetica-Light" font-size="28.0" fill="#FEFFFF" transform="matrix(1.00, 0.00, -0.00, -1.00, 109.0, 394.0)">R</text><text xml:space="preserve" font-family="Helvetica-Light" font-size="28.0" fill="#FEFFFF" transform="matrix(1.00, 0.00, -0.00, -1.00, 127.7, 394.0)">a</text><text xml:space="preserve" font-family="Helvetica-Light" font-size="28.0" fill="#FEFFFF" transform="matrix(1.00, 0.00, -0.00, -1.00, 143.2, 394.0)">n</text><text xml:space="preserve" font-family="Helvetica-Light" font-size="28.0" fill="#FEFFFF" transform="matrix(1.00, 0.00, -0.00, -1.00, 158.8, 394.0)">q</text><text xml:space="preserve" font-family="Helvetica-Light" font-size="28.0" fill="#FEFFFF" transform="matrix(1.00, 0.00, -0.00, -1.00, 175.9, 394.0)">u</text><text xml:space="preserve" font-family="Helvetica-Light" font-size="28.0" fill="#FEFFFF" transform="matrix(1.00, 0.00, -0.00, -1.00, 191.5, 394.0)">e</text><text xml:space="preserve" font-family="Helvetica-Light" font-size="28.0" fill="#FEFFFF" transform="matrix(1.00, 0.00, -0.00, -1.00, 207.1, 394.0)">a</text><text xml:space="preserve" font-family="Helvetica-Light" font-size="28.0" fill="#FEFFFF" transform="matrix(1.00, 0.00, -0.00, -1.00, 222.6, 394.0)">m</text><text xml:space="preserve" font-family="Helvetica-Light" font-size="28.0" fill="#FEFFFF" transform="matrix(1.00, 0.00, -0.00, -1.00, 245.9, 394.0)">e</text><text xml:space="preserve" font-family="Helvetica-Light" font-size="28.0" fill="#FEFFFF" transform="matrix(1.00, 0.00, -0.00, -1.00, 261.5, 394.0)">n</text><text xml:space="preserve" font-family="Helvetica-Light" font-size="28.0" fill="#FEFFFF" transform="matrix(1.00, 0.00, -0.00, -1.00, 277.1, 394.0)">t</text><text xml:space="preserve" font-family="Helvetica-Light" font-size="28.0" fill="#FEFFFF" transform="matrix(1.00, 0.00, -0.00, -1.00, 284.9, 394.0)">o</text><text xml:space="preserve" font-family="Helvetica-Light" font-size="28.0" fill="#FEFFFF" transform="matrix(1.00, 0.00, -0.00, -1.00, 300.4, 394.0)"> </text><text xml:space="preserve" font-family="Helvetica-Light" font-size="28.0" fill="#FEFFFF" transform="matrix(1.00, 0.00, -0.00, -1.00, 308.2, 394.0)">d</text><text xml:space="preserve" font-family="Helvetica-Light" font-size="28.0" fill="#FEFFFF" transform="matrix(1.00, 0.00, -0.00, -1.00, 325.3, 394.0)">e</text><text xml:space="preserve" font-family="Helvetica-Light" font-size="28.0" fill="#FEFFFF" transform="matrix(1.00, 0.00, -0.00, -1.00, 340.9, 394.0)"> </text><text xml:space="preserve" font-family="Helvetica-Light" font-size="28.0" fill="#FEFFFF" transform="matrix(1.00, 0.00, -0.00, -1.00, 348.7, 394.0)">e</text><text xml:space="preserve" font-family="Helvetica-Light" font-size="28.0" fill="#FEFFFF" transform="matrix(1.00, 0.00, -0.00, -1.00, 364.2, 394.0)">n</text><text xml:space="preserve" font-family="Helvetica-Light" font-size="28.0" fill="#FEFFFF" transform="matrix(1.00, 0.00, -0.00, -1.00, 379.8, 394.0)">d</text><text xml:space="preserve" font-family="Helvetica-Light" font-size="28.0" fill="#FEFFFF" transform="matrix(1.00, 0.00, -0.00, -1.00, 396.9, 394.0)">e</text><text xml:space="preserve" font-family="Helvetica-Light" font-size="28.0" fill="#FEFFFF" transform="matrix(1.00, 0.00, -0.00, -1.00, 412.5, 394.0)">r</text><text xml:space="preserve" font-family="Helvetica-Light" font-size="28.0" fill="#FEFFFF" transform="matrix(1.00, 0.00, -0.00, -1.00, 421.3, 394.0)">e</text><text xml:space="preserve" font-family="Helvetica-Light" font-size="28.0" fill="#FEFFFF" transform="matrix(1.00, 0.00, -0.00, -1.00, 436.9, 394.0)">ç</text><text xml:space="preserve" font-family="Helvetica-Light" font-size="28.0" fill="#FEFFFF" transform="matrix(1.00, 0.00, -0.00, -1.00, 452.4, 394.0)">o</text><text xml:space="preserve" font-family="Helvetica-Light" font-size="28.0" fill="#FEFFFF" transform="matrix(1.00, 0.00, -0.00, -1.00, 468.0, 394.0)">s</text><text xml:space="preserve" font-family="Helvetica-Light" font-size="28.0" fill="#FEFFFF" transform="matrix(1.00, 0.00, -0.00, -1.00, 482.0, 394.0)"> </text><text xml:space="preserve" font-family="Helvetica-Light" font-size="28.0" fill="#FEFFFF" transform="matrix(1.00, 0.00, -0.00, -1.00, 109.0, 360.0)">“</text><text xml:space="preserve" font-family="Helvetica-Light" font-size="28.0" fill="#FEFFFF" transform="matrix(1.00, 0.00, -0.00, -1.00, 119.9, 360.0)">p</text><text xml:space="preserve" font-family="Helvetica-Light" font-size="28.0" fill="#FEFFFF" transform="matrix(1.00, 0.00, -0.00, -1.00, 137.0, 360.0)">o</text><text xml:space="preserve" font-family="Helvetica-Light" font-size="28.0" fill="#FEFFFF" transform="matrix(1.00, 0.00, -0.00, -1.00, 152.6, 360.0)">d</text><text xml:space="preserve" font-family="Helvetica-Light" font-size="28.0" fill="#FEFFFF" transform="matrix(1.00, 0.00, -0.00, -1.00, 169.7, 360.0)">r</text><text xml:space="preserve" font-family="Helvetica-Light" font-size="28.0" fill="#FEFFFF" transform="matrix(1.00, 0.00, -0.00, -1.00, 178.5, 360.0)">e</text><text xml:space="preserve" font-family="Helvetica-Light" font-size="28.0" fill="#FEFFFF" transform="matrix(1.00, 0.00, -0.00, -1.00, 194.1, 360.0)">s</text><text xml:space="preserve" font-family="Helvetica-Light" font-size="28.0" fill="#FEFFFF" transform="matrix(1.00, 0.00, -0.00, -1.00, 208.1, 360.0)">"</text><text xml:space="preserve" font-family="Helvetica-Light" font-size="28.0" fill="#FEFFFF" transform="matrix(1.00, 0.00, -0.00, -1.00, 215.8, 360.0)"> </text><text xml:space="preserve" font-family="Helvetica-Light" font-size="21.0" fill="#FEFFFF" transform="matrix(1.00, 0.00, -0.00, -1.00, 79.0, 291.3)">•</text><text xml:space="preserve" font-family="Helvetica-Light" font-size="28.0" fill="#FEFFFF" transform="matrix(1.00, 0.00, -0.00, -1.00, 109.0, 288.0)">V</text><text xml:space="preserve" font-family="Helvetica-Light" font-size="28.0" fill="#FEFFFF" transform="matrix(1.00, 0.00, -0.00, -1.00, 125.6, 288.0)">i</text><text xml:space="preserve" font-family="Helvetica-Light" font-size="28.0" fill="#FEFFFF" transform="matrix(1.00, 0.00, -0.00, -1.00, 131.8, 288.0)">s</text><text xml:space="preserve" font-family="Helvetica-Light" font-size="28.0" fill="#FEFFFF" transform="matrix(1.00, 0.00, -0.00, -1.00, 145.8, 288.0)">t</text><text xml:space="preserve" font-family="Helvetica-Light" font-size="28.0" fill="#FEFFFF" transform="matrix(1.00, 0.00, -0.00, -1.00, 153.6, 288.0)">o</text><text xml:space="preserve" font-family="Helvetica-Light" font-size="28.0" fill="#FEFFFF" transform="matrix(1.00, 0.00, -0.00, -1.00, 169.2, 288.0)"> </text><text xml:space="preserve" font-family="Helvetica-Light" font-size="28.0" fill="#FEFFFF" transform="matrix(1.00, 0.00, -0.00, -1.00, 177.0, 288.0)">p</text><text xml:space="preserve" font-family="Helvetica-Light" font-size="28.0" fill="#FEFFFF" transform="matrix(1.00, 0.00, -0.00, -1.00, 194.1, 288.0)">o</text><text xml:space="preserve" font-family="Helvetica-Light" font-size="28.0" fill="#FEFFFF" transform="matrix(1.00, 0.00, -0.00, -1.00, 209.6, 288.0)">r</text><text xml:space="preserve" font-family="Helvetica-Light" font-size="28.0" fill="#FEFFFF" transform="matrix(1.00, 0.00, -0.00, -1.00, 219.0, 288.0)"> </text><text xml:space="preserve" font-family="Helvetica-Light" font-size="28.0" fill="#FEFFFF" transform="matrix(1.00, 0.00, -0.00, -1.00, 226.7, 288.0)">ú</text><text xml:space="preserve" font-family="Helvetica-Light" font-size="28.0" fill="#FEFFFF" transform="matrix(1.00, 0.00, -0.00, -1.00, 242.3, 288.0)">l</text><text xml:space="preserve" font-family="Helvetica-Light" font-size="28.0" fill="#FEFFFF" transform="matrix(1.00, 0.00, -0.00, -1.00, 248.5, 288.0)">t</text><text xml:space="preserve" font-family="Helvetica-Light" font-size="28.0" fill="#FEFFFF" transform="matrix(1.00, 0.00, -0.00, -1.00, 256.3, 288.0)">i</text><text xml:space="preserve" font-family="Helvetica-Light" font-size="28.0" fill="#FEFFFF" transform="matrix(1.00, 0.00, -0.00, -1.00, 262.5, 288.0)">m</text><text xml:space="preserve" font-family="Helvetica-Light" font-size="28.0" fill="#FEFFFF" transform="matrix(1.00, 0.00, -0.00, -1.00, 285.8, 288.0)">o</text><text xml:space="preserve" font-family="Helvetica-Light" font-size="28.0" fill="#FEFFFF" transform="matrix(1.00, 0.00, -0.00, -1.00, 301.4, 288.0)"> </text><text xml:space="preserve" font-family="Helvetica-Light" font-size="28.0" fill="#FEFFFF" transform="matrix(1.00, 0.00, -0.00, -1.00, 309.2, 288.0)">e</text><text xml:space="preserve" font-family="Helvetica-Light" font-size="28.0" fill="#FEFFFF" transform="matrix(1.00, 0.00, -0.00, -1.00, 324.8, 288.0)">m</text><text xml:space="preserve" font-family="Helvetica-Light" font-size="28.0" fill="#FEFFFF" transform="matrix(1.00, 0.00, -0.00, -1.00, 348.1, 288.0)">/</text><text xml:space="preserve" font-family="Helvetica-Light" font-size="28.0" fill="#FEFFFF" transform="matrix(1.00, 0.00, -0.00, -1.00, 355.9, 288.0)">o</text><text xml:space="preserve" font-family="Helvetica-Light" font-size="28.0" fill="#FEFFFF" transform="matrix(1.00, 0.00, -0.00, -1.00, 371.4, 288.0)">n</text><text xml:space="preserve" font-family="Helvetica-Light" font-size="28.0" fill="#FEFFFF" transform="matrix(1.00, 0.00, -0.00, -1.00, 387.0, 288.0)">d</text><text xml:space="preserve" font-family="Helvetica-Light" font-size="28.0" fill="#FEFFFF" transform="matrix(1.00, 0.00, -0.00, -1.00, 404.1, 288.0)">e</text><text xml:space="preserve" font-family="Helvetica-Light" font-size="28.0" fill="#FEFFFF" transform="matrix(1.00, 0.00, -0.00, -1.00, 419.7, 288.0)"> </text><text xml:space="preserve" font-family="Helvetica-Light" font-size="21.0" fill="#FEFFFF" transform="matrix(1.00, 0.00, -0.00, -1.00, 79.0, 219.3)">•</text><text xml:space="preserve" font-family="Helvetica-Light" font-size="28.0" fill="#FEFFFF" transform="matrix(1.00, 0.00, -0.00, -1.00, 109.0, 216.0)">I</text><text xml:space="preserve" font-family="Helvetica-Light" font-size="28.0" fill="#FEFFFF" transform="matrix(1.00, 0.00, -0.00, -1.00, 116.8, 216.0)">n</text><text xml:space="preserve" font-family="Helvetica-Light" font-size="28.0" fill="#FEFFFF" transform="matrix(1.00, 0.00, -0.00, -1.00, 132.4, 216.0)">t</text><text xml:space="preserve" font-family="Helvetica-Light" font-size="28.0" fill="#FEFFFF" transform="matrix(1.00, 0.00, -0.00, -1.00, 140.1, 216.0)">e</text><text xml:space="preserve" font-family="Helvetica-Light" font-size="28.0" fill="#FEFFFF" transform="matrix(1.00, 0.00, -0.00, -1.00, 155.7, 216.0)">l</text><text xml:space="preserve" font-family="Helvetica-Light" font-size="28.0" fill="#FEFFFF" transform="matrix(1.00, 0.00, -0.00, -1.00, 161.9, 216.0)">i</text><text xml:space="preserve" font-family="Helvetica-Light" font-size="28.0" fill="#FEFFFF" transform="matrix(1.00, 0.00, -0.00, -1.00, 168.1, 216.0)">g</text><text xml:space="preserve" font-family="Helvetica-Light" font-size="28.0" fill="#FEFFFF" transform="matrix(1.00, 0.00, -0.00, -1.00, 185.2, 216.0)">ê</text><text xml:space="preserve" font-family="Helvetica-Light" font-size="28.0" fill="#FEFFFF" transform="matrix(1.00, 0.00, -0.00, -1.00, 200.8, 216.0)">n</text><text xml:space="preserve" font-family="Helvetica-Light" font-size="28.0" fill="#FEFFFF" transform="matrix(1.00, 0.00, -0.00, -1.00, 216.4, 216.0)">c</text><text xml:space="preserve" font-family="Helvetica-Light" font-size="28.0" fill="#FEFFFF" transform="matrix(1.00, 0.00, -0.00, -1.00, 231.9, 216.0)">i</text><text xml:space="preserve" font-family="Helvetica-Light" font-size="28.0" fill="#FEFFFF" transform="matrix(1.00, 0.00, -0.00, -1.00, 238.2, 216.0)">a</text></g></svg>