<?xml version="1.0" encoding="UTF-8" standalone="no"?><svg xmlns="http://www.w3.org/2000/svg" xmlns:xlink="http://www.w3.org/1999/xlink" clip-rule="evenodd" stroke-miterlimit="4.00" viewBox="0 0 1024 768"><desc>SVG generated by Keynote</desc><defs></defs><g transform="matrix(1.00, 0.00, -0.00, -1.00, 0.0, 768.0)"><g><clipPath id="clip-102"><path d="M 0.0 768.0 L 1024.0 768.0 L 1024.0 0.0 L 0.0 0.0 Z M 0.0 768.0 "></path></clipPath><g clip-path="url(#clip-102)"><image xlink:href="../../06DBE9C8-52A0-453A-A7BF-EBF58CF01F35/assets/E7ABA782A15EA3475B4CFCC80A2FEB63.jpeg" width="1024.00" height="768.00" transform="matrix(1.00, 0.00, -0.00, -1.00, 0.0, 768.0)"></image></g></g><g><clipPath id="clip-103"><path d="M 126.0 718.0 L 896.0 718.0 L 896.0 252.0 L 126.0 252.0 Z M 126.0 718.0 "></path></clipPath><g clip-path="url(#clip-103)"><image xlink:href="../../CCDE4D56-EE22-47AA-8730-C30B3E444328/assets/5F253FD1316B3FC3831CA1DEDAF7B221.png" width="770.00" height="577.00" transform="matrix(1.00, 0.00, -0.00, -1.00, 127.0, 733.0)"></image></g></g><text xml:space="preserve" font-family="Helvetica-Light" font-size="77.6" fill="#FEFFFF" transform="matrix(1.00, 0.00, -0.00, -1.00, 105.0, 149.0)">H</text><text xml:space="preserve" font-family="Helvetica-Light" font-size="77.6" fill="#FEFFFF" transform="matrix(1.00, 0.00, -0.00, -1.00, 161.0, 149.0)">i</text><text xml:space="preserve" font-family="Helvetica-Light" font-size="77.6" fill="#FEFFFF" transform="matrix(1.00, 0.00, -0.00, -1.00, 178.3, 149.0)">s</text><text xml:space="preserve" font-family="Helvetica-Light" font-size="77.6" fill="#FEFFFF" transform="matrix(1.00, 0.00, -0.00, -1.00, 217.1, 149.0)">t</text><text xml:space="preserve" font-family="Helvetica-Light" font-size="77.6" fill="#FEFFFF" transform="matrix(1.00, 0.00, -0.00, -1.00, 238.6, 149.0)">ó</text><text xml:space="preserve" font-family="Helvetica-Light" font-size="77.6" fill="#FEFFFF" transform="matrix(1.00, 0.00, -0.00, -1.00, 281.8, 149.0)">r</text><text xml:space="preserve" font-family="Helvetica-Light" font-size="77.6" fill="#FEFFFF" transform="matrix(1.00, 0.00, -0.00, -1.00, 307.6, 149.0)">i</text><text xml:space="preserve" font-family="Helvetica-Light" font-size="77.6" fill="#FEFFFF" transform="matrix(1.00, 0.00, -0.00, -1.00, 324.8, 149.0)">c</text><text xml:space="preserve" font-family="Helvetica-Light" font-size="77.6" fill="#FEFFFF" transform="matrix(1.00, 0.00, -0.00, -1.00, 368.0, 149.0)">o</text><text xml:space="preserve" font-family="Helvetica-Light" font-size="77.6" fill="#FEFFFF" transform="matrix(1.00, 0.00, -0.00, -1.00, 411.1, 149.0)"> </text><text xml:space="preserve" font-family="Helvetica-Light" font-size="77.6" fill="#FEFFFF" transform="matrix(1.00, 0.00, -0.00, -1.00, 432.7, 149.0)">d</text><text xml:space="preserve" font-family="Helvetica-Light" font-size="77.6" fill="#FEFFFF" transform="matrix(1.00, 0.00, -0.00, -1.00, 480.1, 149.0)">e</text><text xml:space="preserve" font-family="Helvetica-Light" font-size="77.6" fill="#FEFFFF" transform="matrix(1.00, 0.00, -0.00, -1.00, 523.3, 149.0)"> </text><text xml:space="preserve" font-family="Helvetica-Light" font-size="77.6" fill="#FEFFFF" transform="matrix(1.00, 0.00, -0.00, -1.00, 544.8, 149.0)">d</text><text xml:space="preserve" font-family="Helvetica-Light" font-size="77.6" fill="#FEFFFF" transform="matrix(1.00, 0.00, -0.00, -1.00, 592.3, 149.0)">i</text><text xml:space="preserve" font-family="Helvetica-Light" font-size="77.6" fill="#FEFFFF" transform="matrix(1.00, 0.00, -0.00, -1.00, 609.5, 149.0)">l</text><text xml:space="preserve" font-family="Helvetica-Light" font-size="77.6" fill="#FEFFFF" transform="matrix(1.00, 0.00, -0.00, -1.00, 626.7, 149.0)">i</text><text xml:space="preserve" font-family="Helvetica-Light" font-size="77.6" fill="#FEFFFF" transform="matrix(1.00, 0.00, -0.00, -1.00, 643.9, 149.0)">g</text><text xml:space="preserve" font-family="Helvetica-Light" font-size="77.6" fill="#FEFFFF" transform="matrix(1.00, 0.00, -0.00, -1.00, 691.3, 149.0)">ê</text><text xml:space="preserve" font-family="Helvetica-Light" font-size="77.6" fill="#FEFFFF" transform="matrix(1.00, 0.00, -0.00, -1.00, 734.5, 149.0)">n</text><text xml:space="preserve" font-family="Helvetica-Light" font-size="77.6" fill="#FEFFFF" transform="matrix(1.00, 0.00, -0.00, -1.00, 777.6, 149.0)">c</text><text xml:space="preserve" font-family="Helvetica-Light" font-size="77.6" fill="#FEFFFF" transform="matrix(1.00, 0.00, -0.00, -1.00, 820.8, 149.0)">i</text><text xml:space="preserve" font-family="Helvetica-Light" font-size="77.6" fill="#FEFFFF" transform="matrix(1.00, 0.00, -0.00, -1.00, 838.0, 149.0)">a</text><text xml:space="preserve" font-family="Helvetica-Light" font-size="77.6" fill="#FEFFFF" transform="matrix(1.00, 0.00, -0.00, -1.00, 881.2, 149.0)">s</text><path d="M 0.0 0.0 L 284.7 0.0 L 284.7 110.0 L 0.0 110.0 Z M 0.0 0.0 " fill="none" stroke="#FF2600" stroke-width="2.00" transform="matrix(1.00, 0.00, 0.00, -1.00, 607.8, 674.3)"></path></g></svg>