<?xml version="1.0" encoding="UTF-8" standalone="no"?><svg xmlns="http://www.w3.org/2000/svg" xmlns:xlink="http://www.w3.org/1999/xlink" clip-rule="evenodd" stroke-miterlimit="4.00" viewBox="0 0 1024 768"><desc>SVG generated by Keynote</desc><defs></defs><g transform="matrix(1.00, 0.00, -0.00, -1.00, 0.0, 768.0)"><g><clipPath id="clip-30"><path d="M 0.0 768.0 L 1024.0 768.0 L 1024.0 0.0 L 0.0 0.0 Z M 0.0 768.0 "></path></clipPath><g clip-path="url(#clip-30)"><image xlink:href="../../06DBE9C8-52A0-453A-A7BF-EBF58CF01F35/assets/E7ABA782A15EA3475B4CFCC80A2FEB63.jpeg" width="1024.00" height="768.00" transform="matrix(1.00, 0.00, -0.00, -1.00, 0.0, 768.0)"></image></g></g><text xml:space="preserve" font-family="Helvetica-Light" font-size="73.6" fill="#FEFFFF" transform="matrix(1.00, 0.00, -0.00, -1.00, 108.0, 148.0)">D</text><text xml:space="preserve" font-family="Helvetica-Light" font-size="73.6" fill="#FEFFFF" transform="matrix(1.00, 0.00, -0.00, -1.00, 161.1, 148.0)">a</text><text xml:space="preserve" font-family="Helvetica-Light" font-size="73.6" fill="#FEFFFF" transform="matrix(1.00, 0.00, -0.00, -1.00, 202.1, 148.0)">d</text><text xml:space="preserve" font-family="Helvetica-Light" font-size="73.6" fill="#FEFFFF" transform="matrix(1.00, 0.00, -0.00, -1.00, 247.0, 148.0)">o</text><text xml:space="preserve" font-family="Helvetica-Light" font-size="73.6" fill="#FEFFFF" transform="matrix(1.00, 0.00, -0.00, -1.00, 288.0, 148.0)">s</text><text xml:space="preserve" font-family="Helvetica-Light" font-size="73.6" fill="#FEFFFF" transform="matrix(1.00, 0.00, -0.00, -1.00, 324.8, 148.0)"> </text><text xml:space="preserve" font-family="Helvetica-Light" font-size="73.6" fill="#FEFFFF" transform="matrix(1.00, 0.00, -0.00, -1.00, 345.2, 148.0)">G</text><text xml:space="preserve" font-family="Helvetica-Light" font-size="73.6" fill="#FEFFFF" transform="matrix(1.00, 0.00, -0.00, -1.00, 402.5, 148.0)">E</text><text xml:space="preserve" font-family="Helvetica-Light" font-size="73.6" fill="#FEFFFF" transform="matrix(1.00, 0.00, -0.00, -1.00, 447.4, 148.0)">O</text><text xml:space="preserve" font-family="Helvetica-Light" font-size="73.6" fill="#FEFFFF" transform="matrix(1.00, 0.00, -0.00, -1.00, 504.7, 148.0)">r</text><text xml:space="preserve" font-family="Helvetica-Light" font-size="73.6" fill="#FEFFFF" transform="matrix(1.00, 0.00, -0.00, -1.00, 529.2, 148.0)">r</text><text xml:space="preserve" font-family="Helvetica-Light" font-size="73.6" fill="#FEFFFF" transform="matrix(1.00, 0.00, -0.00, -1.00, 552.4, 148.0)">e</text><text xml:space="preserve" font-family="Helvetica-Light" font-size="73.6" fill="#FEFFFF" transform="matrix(1.00, 0.00, -0.00, -1.00, 593.3, 148.0)">f</text><text xml:space="preserve" font-family="Helvetica-Light" font-size="73.6" fill="#FEFFFF" transform="matrix(1.00, 0.00, -0.00, -1.00, 613.8, 148.0)">e</text><text xml:space="preserve" font-family="Helvetica-Light" font-size="73.6" fill="#FEFFFF" transform="matrix(1.00, 0.00, -0.00, -1.00, 654.7, 148.0)">n</text><text xml:space="preserve" font-family="Helvetica-Light" font-size="73.6" fill="#FEFFFF" transform="matrix(1.00, 0.00, -0.00, -1.00, 695.6, 148.0)">c</text><text xml:space="preserve" font-family="Helvetica-Light" font-size="73.6" fill="#FEFFFF" transform="matrix(1.00, 0.00, -0.00, -1.00, 736.5, 148.0)">i</text><text xml:space="preserve" font-family="Helvetica-Light" font-size="73.6" fill="#FEFFFF" transform="matrix(1.00, 0.00, -0.00, -1.00, 752.9, 148.0)">a</text><text xml:space="preserve" font-family="Helvetica-Light" font-size="73.6" fill="#FEFFFF" transform="matrix(1.00, 0.00, -0.00, -1.00, 793.8, 148.0)">d</text><text xml:space="preserve" font-family="Helvetica-Light" font-size="73.6" fill="#FEFFFF" transform="matrix(1.00, 0.00, -0.00, -1.00, 838.8, 148.0)">o</text><text xml:space="preserve" font-family="Helvetica-Light" font-size="73.6" fill="#FEFFFF" transform="matrix(1.00, 0.00, -0.00, -1.00, 879.7, 148.0)">s</text><image xlink:href="D2FDBE52F07154FCDB87F754727CB0E6.png" width="960.00" height="350.00" transform="matrix(1.00, 0.00, -0.00, -1.00, 63.0, 675.0)"></image><image xlink:href="899E0ED9E05A88E8E67244233443852E.png" width="4000.00" height="505.00" transform="matrix(0.24, 0.00, -0.00, -0.24, 63.0, 325.5)"></image></g></svg>